# https://github.com/mikedh/trimesh
v 0.00000000 0.39824644 -0.18601304
v 0.04139354 0.35487308 -0.18134630
v 0.00000000 0.35487308 -0.18601304
v 0.04139354 0.39824644 -0.18134630
v 0.08070742 0.35487308 -0.16758726
v 0.08070742 0.39824644 -0.16758726
v 0.11597845 0.35487308 -0.14542641
v 0.11597845 0.39824644 -0.14542641
v 0.14542641 0.35487308 -0.11597845
v 0.14542641 0.39824644 -0.11597845
v 0.16758726 0.35487308 -0.08070742
v 0.16758726 0.39824644 -0.08070742
v 0.18134630 0.35487308 -0.04139354
v 0.18134630 0.39824644 -0.04139354
v 0.18601304 0.35487308 0.00000000
v 0.18601304 0.39824644 0.00000000
v 0.18134630 0.35487308 0.04139354
v 0.18134630 0.39824644 0.04139354
v 0.16758726 0.35487308 0.08070742
v 0.16758726 0.39824644 0.08070742
v 0.14542641 0.35487308 0.11597845
v 0.14542641 0.39824644 0.11597845
v 0.11597845 0.35487308 0.14542641
v 0.11597845 0.39824644 0.14542641
v 0.08070742 0.35487308 0.16758726
v 0.08070742 0.39824644 0.16758726
v 0.04139354 0.35487308 0.18134630
v 0.04139354 0.39824644 0.18134630
v 0.00000000 0.35487308 0.18601304
v 0.00000000 0.39824644 0.18601304
v -0.04139354 0.35487308 0.18134630
v -0.04139354 0.39824644 0.18134630
v -0.08070742 0.35487308 0.16758726
v -0.08070742 0.39824644 0.16758726
v -0.11597845 0.35487308 0.14542641
v -0.11597845 0.39824644 0.14542641
v -0.14542641 0.35487308 0.11597845
v -0.14542641 0.39824644 0.11597845
v -0.16758726 0.35487308 0.08070742
v -0.16758726 0.39824644 0.08070742
v -0.18134630 0.35487308 0.04139354
v -0.18134630 0.39824644 0.04139354
v -0.18601304 0.35487308 0.00000000
v -0.18601304 0.39824644 0.00000000
v -0.18134630 0.35487308 -0.04139354
v -0.18134630 0.39824644 -0.04139354
v -0.16758726 0.35487308 -0.08070742
v -0.16758726 0.39824644 -0.08070742
v -0.14542641 0.35487308 -0.11597845
v -0.14542641 0.39824644 -0.11597845
v -0.11597845 0.35487308 -0.14542641
v -0.11597845 0.39824644 -0.14542641
v -0.08070742 0.35487308 -0.16758726
v -0.08070742 0.39824644 -0.16758726
v -0.04139354 0.35487308 -0.18134630
v -0.04139354 0.39824644 -0.18134630
v 0.00000000 0.35487308 -0.18601304
v -0.12602736 0.35068047 0.15802916
v -0.08770339 0.35068047 0.18211161
v 0.18134630 0.33679669 0.04139354
v 0.20212624 0.34099758 0.00000000
v 0.19706020 0.34099758 0.04497887
v -0.15802916 0.35068047 0.12602736
v 0.18134630 0.33679669 -0.04139354
v 0.18601304 0.33679669 0.00000000
v 0.18211161 0.34099758 -0.08769507
v 0.19706020 0.34099758 -0.04497887
v -0.19706020 0.35068047 0.04497887
v -0.18211161 0.35068047 0.08769507
v 0.14542641 0.33679669 -0.11597845
v 0.16758726 0.33679669 -0.08070742
v -0.20212624 0.35068047 0.00000000
v 0.12602736 0.34099758 -0.15802916
v 0.15802916 0.34099758 -0.12602736
v 0.11597845 0.33679669 -0.14542641
v 0.08769507 0.34099758 -0.18211161
v -0.18211161 0.35068047 -0.08770339
v -0.19706020 0.35068047 -0.04497887
v 0.08070742 0.33679669 -0.16758726
v 0.04497887 0.34099758 -0.19706020
v -0.04139354 0.33679669 -0.18134630
v 0.00000000 0.34099758 -0.20212624
v 0.00000000 0.33679669 -0.18601304
v -0.15802916 0.35068047 -0.12602736
v 0.04139354 0.33679669 -0.18134630
v 0.00000000 0.34099758 -0.20212624
v -0.08070742 0.33679669 -0.16758726
v -0.04497887 0.34099758 -0.19706020
v -0.12602736 0.35068047 -0.15802916
v -0.11597845 0.33679669 -0.14542641
v -0.08769507 0.34099758 -0.18211161
v -0.15802916 0.34099758 -0.12602736
v -0.12602736 0.34099758 -0.15802916
v -0.04497887 0.35068047 -0.19706020
v -0.08769507 0.35068047 -0.18211161
v 0.00000000 0.35068047 -0.20212624
v -0.16758726 0.33679669 -0.08070742
v -0.14542641 0.33679669 -0.11597845
v 0.04497887 0.35068047 -0.19706020
v -0.18134630 0.33679669 -0.04139354
v -0.18211161 0.34099758 -0.08770339
v 0.00000000 0.33679669 -0.18601304
v 0.04139354 -0.50000000 -0.18134630
v 0.00000000 -0.50000000 -0.18601304
v 0.08070742 -0.50000000 -0.16758726
v 0.11597845 -0.50000000 -0.14542641
v 0.14542641 -0.50000000 -0.11597845
v 0.16758726 -0.50000000 -0.08070742
v 0.18134630 -0.50000000 -0.04139354
v 0.18601304 -0.50000000 0.00000000
v 0.18134630 -0.50000000 0.04139354
v 0.16758726 -0.50000000 0.08070742
v 0.16758726 0.33679669 0.08070742
v 0.14542641 -0.50000000 0.11597845
v 0.14542641 0.33679669 0.11597845
v 0.11597845 -0.50000000 0.14542641
v 0.11597845 0.33679669 0.14542641
v 0.08070742 -0.50000000 0.16758726
v 0.08070742 0.33679669 0.16758726
v 0.04139354 -0.50000000 0.18134630
v 0.04139354 0.33679669 0.18134630
v 0.00000000 -0.50000000 0.18601304
v 0.00000000 0.33679669 0.18601304
v -0.04139354 -0.50000000 0.18134630
v -0.04139354 0.33679669 0.18134630
v -0.08070742 -0.50000000 0.16758726
v -0.08070742 0.33679669 0.16758726
v -0.11597845 -0.50000000 0.14542641
v -0.11597845 0.33679669 0.14542641
v -0.14542641 -0.50000000 0.11597845
v -0.14542641 0.33679669 0.11597845
v -0.16758726 -0.50000000 0.08070742
v -0.16758726 0.33679669 0.08070742
v -0.18134630 -0.50000000 0.04139354
v -0.18134630 0.33679669 0.04139354
v -0.18601304 -0.50000000 0.00000000
v -0.18601304 0.33679669 0.00000000
v -0.18134630 -0.50000000 -0.04139354
v -0.16758726 -0.50000000 -0.08070742
v -0.14542641 -0.50000000 -0.11597845
v -0.11597845 -0.50000000 -0.14542641
v -0.08070742 -0.50000000 -0.16758726
v -0.04139354 -0.50000000 -0.18134630
v 0.00000000 -0.50000000 -0.18601304
v -0.19706020 0.34099758 -0.04497887
v -0.20212624 0.34099758 0.00000000
v -0.19706020 0.34099758 0.04497887
v -0.18211161 0.34099758 0.08769507
v -0.15802916 0.34099758 0.12602736
v -0.12602736 0.34099758 0.15802916
v -0.08770339 0.34099758 0.18211161
v -0.04497887 0.35068047 0.19706020
v -0.04497887 0.34099758 0.19706020
v 0.00000000 0.35068047 0.20212624
v 0.00000000 0.34099758 0.20212624
v 0.04497887 0.35068047 0.19706020
v 0.04497887 0.34099758 0.19706020
v 0.08769507 0.35068047 0.18211161
v 0.08769507 0.34099758 0.18211161
v 0.12602736 0.35068047 0.15802916
v 0.12602736 0.34099758 0.15802916
v 0.15802916 0.35068047 0.12602736
v 0.15802916 0.34099758 0.12602736
v 0.18211161 0.35068047 0.08769507
v 0.18211161 0.34099758 0.08769507
v 0.19706020 0.35068047 0.04497887
v 0.20212624 0.35068047 0.00000000
v 0.19706020 0.35068047 -0.04497887
v 0.18211161 0.35068047 -0.08769507
v 0.15802916 0.35068047 -0.12602736
v 0.12602736 0.35068047 -0.15802916
v 0.08769507 0.35068047 -0.18211161
v 0.00000000 0.39824644 -0.18601304
v 0.00000000 0.35068047 -0.20212624
v 0.18601304 -0.50000000 0.00000000
v -0.04139354 -0.50000000 0.18134630
v -0.04139354 -0.50000000 -0.18134630
v 0.00000000 -0.50000000 -0.18601304
v 0.04139354 -0.50000000 -0.18134630
v 0.08070742 -0.50000000 -0.16758726
v 0.11597845 -0.50000000 -0.14542641
v 0.14542641 -0.50000000 -0.11597845
v 0.16758726 -0.50000000 -0.08070742
v 0.18134630 -0.50000000 -0.04139354
v 0.18134630 -0.50000000 0.04139354
v 0.16758726 -0.50000000 0.08070742
v 0.14542641 -0.50000000 0.11597845
v 0.11597845 -0.50000000 0.14542641
v 0.08070742 -0.50000000 0.16758726
v 0.04139354 -0.50000000 0.18134630
v 0.00000000 -0.50000000 0.18601304
v -0.08070742 -0.50000000 0.16758726
v -0.11597845 -0.50000000 0.14542641
v -0.14542641 -0.50000000 0.11597845
v -0.16758726 -0.50000000 0.08070742
v -0.18134630 -0.50000000 0.04139354
v -0.18601304 -0.50000000 0.00000000
v -0.18134630 -0.50000000 -0.04139354
v -0.16758726 -0.50000000 -0.08070742
v -0.14542641 -0.50000000 -0.11597845
v -0.11597845 -0.50000000 -0.14542641
v -0.08070742 -0.50000000 -0.16758726
v -0.06916947 -0.49754602 0.00000000
v -0.06916947 -0.49200580 -0.04871394
v -0.03472199 -0.49200580 -0.03444748
v -0.06916947 -0.45617742 -0.09743620
v -0.00949988 -0.47686587 -0.05966958
v -0.06916947 -0.47686587 -0.08438426
v -0.02044721 -0.49200580 0.00000000
v -0.00027452 -0.45617742 -0.06889496
v 0.01521479 -0.47686587 0.00000000
v -0.00949988 -0.47686587 0.05966958
v -0.03472199 -0.49200580 0.03444748
v -0.00027452 -0.45617742 0.06889496
v -0.06916947 -0.49200580 0.04871394
v -0.06916947 -0.47686587 0.08438426
v -0.10361695 -0.49200580 0.03444748
v -0.06916947 -0.45617742 0.09743620
v -0.12883905 -0.47686587 0.05966958
v -0.11788341 -0.49200580 0.00000000
v -0.13806443 -0.45617742 0.06889496
v -0.15354540 -0.47686587 0.00000000
v -0.10361695 -0.49200580 -0.03444748
v -0.16660567 -0.45617742 0.00000000
v -0.12883905 -0.47686587 -0.05966958
v 0.02826673 -0.45617742 0.00000000
v -0.13806443 -0.45617742 -0.06889496
v -0.06916947 -0.42035737 -0.04871394
v -0.00949988 -0.43549730 -0.05966958
v -0.06916947 -0.43549730 -0.08438426
v -0.00027452 -0.45617742 -0.06889496
v -0.06916947 -0.45617742 -0.09743620
v -0.06916947 -0.41480885 0.00000000
v -0.03472199 -0.42035737 -0.03444748
v 0.02826673 -0.45617742 0.00000000
v -0.02044721 -0.42035737 0.00000000
v 0.01521479 -0.43549730 0.00000000
v -0.00027452 -0.45617742 0.06889496
v -0.03472199 -0.42035737 0.03444748
v -0.00949988 -0.43549730 0.05966958
v -0.06916947 -0.45617742 0.09743620
v -0.06916947 -0.42035737 0.04871394
v -0.06916947 -0.43549730 0.08438426
v -0.12883905 -0.43549730 0.05966958
v -0.13806443 -0.45617742 0.06889496
v -0.10361695 -0.42035737 0.03444748
v -0.15354540 -0.43549730 0.00000000
v -0.16660567 -0.45617742 0.00000000
v -0.11788341 -0.42035737 0.00000000
v -0.10361695 -0.42035737 -0.03444748
v -0.12883905 -0.43549730 -0.05966958
v -0.13806443 -0.45617742 -0.06889496
v 0.00000000 0.44387419 -0.19830800
v 0.04413037 0.35622069 -0.19334177
v 0.00000000 0.35622069 -0.19830800
v 0.04413037 0.44387419 -0.19334177
v 0.08604798 0.35622069 -0.17867601
v 0.08604798 0.44387419 -0.17867601
v 0.12364822 0.35622069 -0.15504276
v 0.12364822 0.44387419 -0.15504276
v 0.15504276 0.35622069 -0.12364822
v 0.15504276 0.44387419 -0.12364822
v 0.17867601 0.35622069 -0.08604798
v 0.17867601 0.44387419 -0.08604798
v 0.19334177 0.35622069 -0.04413037
v 0.19334177 0.44387419 -0.04413037
v 0.19830800 0.35622069 0.00000000
v 0.19830800 0.44387419 0.00000000
v 0.19334177 0.35622069 0.04413037
v 0.19334177 0.44387419 0.04413037
v 0.17867601 0.35622069 0.08604798
v 0.17867601 0.44387419 0.08604798
v 0.15504276 0.35622069 0.12364822
v 0.15504276 0.44387419 0.12364822
v 0.12364822 0.35622069 0.15504276
v 0.12364822 0.44387419 0.15504276
v 0.08604798 0.35622069 0.17867601
v 0.08604798 0.44387419 0.17867601
v 0.04413037 0.35622069 0.19334177
v 0.04413037 0.44387419 0.19334177
v 0.00000000 0.35622069 0.19830800
v 0.00000000 0.44387419 0.19830800
v -0.04413037 0.35622069 0.19334177
v -0.04413037 0.44387419 0.19334177
v -0.08604798 0.35622069 0.17867601
v -0.08604798 0.44387419 0.17867601
v -0.12364822 0.35622069 0.15504276
v -0.12364822 0.44387419 0.15504276
v -0.15504276 0.35622069 0.12364822
v -0.15504276 0.44387419 0.12364822
v -0.17867601 0.35622069 0.08604798
v -0.17867601 0.44387419 0.08604798
v -0.19334177 0.35622069 0.04413037
v -0.19334177 0.44387419 0.04413037
v -0.19830800 0.35622069 0.00000000
v -0.19830800 0.44387419 0.00000000
v -0.19334177 0.35622069 -0.04413037
v -0.19334177 0.44387419 -0.04413037
v -0.17867601 0.35622069 -0.08604798
v -0.17867601 0.44387419 -0.08604798
v -0.15504276 0.35622069 -0.12364822
v -0.15504276 0.44387419 -0.12364822
v -0.12364822 0.35622069 -0.15504276
v -0.12364822 0.44387419 -0.15504276
v -0.08604798 0.35622069 -0.17867601
v -0.08604798 0.44387419 -0.17867601
v -0.04413037 0.35622069 -0.19334177
v -0.04413037 0.44387419 -0.19334177
v 0.00000000 0.35622069 -0.19830800
v 0.00000000 0.44387419 -0.19830800
v -0.11206868 0.44387419 -0.08936712
v -0.08936712 0.50000000 -0.11206868
v -0.08936712 0.44387419 -0.11206868
v 0.08936712 0.44387419 0.11206868
v 0.06219013 0.50000000 0.12914685
v 0.06219013 0.44387419 0.12914685
v -0.06219013 0.50000000 -0.12914685
v -0.06219013 0.44387419 -0.12914685
v 0.03189366 0.50000000 0.13974478
v 0.03189366 0.44387419 0.13974478
v -0.03189366 0.50000000 -0.13974478
v -0.03189366 0.44387419 -0.13974478
v 0.00000000 0.50000000 0.14333844
v 0.00000000 0.44387419 0.14333844
v 0.00000000 0.44387419 -0.14333844
v 0.03189366 0.50000000 -0.13974478
v 0.03189366 0.44387419 -0.13974478
v 0.00000000 0.50000000 -0.14333844
v 0.00000000 0.44387419 -0.14333844
v -0.03189366 0.50000000 0.13974478
v -0.03189366 0.44387419 0.13974478
v 0.06219013 0.50000000 -0.12914685
v 0.06219013 0.44387419 -0.12914685
v -0.06219013 0.50000000 0.12914685
v -0.06219013 0.44387419 0.12914685
v 0.08936712 0.50000000 -0.11206868
v 0.08936712 0.44387419 -0.11206868
v -0.08936712 0.50000000 0.11206868
v -0.08936712 0.44387419 0.11206868
v 0.11206868 0.50000000 -0.08936712
v 0.11206868 0.44387419 -0.08936712
v -0.11206868 0.50000000 0.08936712
v -0.11206868 0.44387419 0.08936712
v 0.12914685 0.50000000 -0.06219013
v 0.12914685 0.44387419 -0.06219013
v -0.12914685 0.50000000 0.06219013
v -0.12914685 0.44387419 0.06219013
v 0.13974478 0.50000000 -0.03189366
v 0.13974478 0.44387419 -0.03189366
v -0.13974478 0.50000000 0.03189366
v -0.13974478 0.44387419 0.03189366
v 0.14333844 0.50000000 0.00000000
v 0.14333844 0.44387419 0.00000000
v -0.14333844 0.50000000 0.00000000
v -0.14333844 0.44387419 0.00000000
v 0.13974478 0.50000000 0.03189366
v 0.13974478 0.44387419 0.03189366
v -0.13974478 0.50000000 -0.03189366
v -0.13974478 0.44387419 -0.03189366
v 0.12914685 0.50000000 0.06219013
v 0.12914685 0.44387419 0.06219013
v -0.12914685 0.50000000 -0.06219013
v -0.12914685 0.44387419 -0.06219013
v 0.11206868 0.50000000 0.08936712
v 0.11206868 0.44387419 0.08936712
v -0.11206868 0.50000000 -0.08936712
v 0.08936712 0.50000000 0.11206868
v 0.00000000 0.50000000 -0.14333844
v 0.03189366 0.44387419 -0.13974478
v 0.00000000 0.44387419 -0.19830800
v 0.00000000 0.44387419 -0.14333844
v 0.06219013 0.44387419 -0.12914685
v 0.04413037 0.44387419 -0.19334177
v 0.08936712 0.44387419 -0.11206868
v 0.08604798 0.44387419 -0.17867601
v 0.11206868 0.44387419 -0.08936712
v 0.12364822 0.44387419 -0.15504276
v 0.17867601 0.44387419 -0.08604798
v 0.15504276 0.44387419 -0.12364822
v 0.13974478 0.44387419 -0.03189366
v 0.12914685 0.44387419 -0.06219013
v 0.19830800 0.44387419 0.00000000
v 0.19334177 0.44387419 -0.04413037
v 0.13974478 0.44387419 0.03189366
v 0.14333844 0.44387419 0.00000000
v 0.17867601 0.44387419 0.08604798
v 0.19334177 0.44387419 0.04413037
v 0.12914685 0.44387419 0.06219013
v 0.15504276 0.44387419 0.12364822
v 0.11206868 0.44387419 0.08936712
v 0.12364822 0.44387419 0.15504276
v 0.06219013 0.44387419 0.12914685
v 0.08936712 0.44387419 0.11206868
v 0.03189366 0.44387419 0.13974478
v 0.08604798 0.44387419 0.17867601
v 0.00000000 0.44387419 0.19830800
v 0.04413037 0.44387419 0.19334177
v -0.03189366 0.44387419 0.13974478
v 0.00000000 0.44387419 0.14333844
v -0.06219013 0.44387419 0.12914685
v -0.04413037 0.44387419 0.19334177
v -0.08936712 0.44387419 0.11206868
v -0.08604798 0.44387419 0.17867601
v -0.11206868 0.44387419 0.08936712
v -0.12364822 0.44387419 0.15504276
v -0.12914685 0.44387419 0.06219013
v -0.15504276 0.44387419 0.12364822
v -0.13974478 0.44387419 0.03189366
v -0.17867601 0.44387419 0.08604798
v -0.19830800 0.44387419 0.00000000
v -0.19334177 0.44387419 0.04413037
v -0.14333844 0.44387419 0.00000000
v -0.19334177 0.44387419 -0.04413037
v -0.12914685 0.44387419 -0.06219013
v -0.13974478 0.44387419 -0.03189366
v -0.15504276 0.44387419 -0.12364822
v -0.17867601 0.44387419 -0.08604798
v -0.08936712 0.44387419 -0.11206868
v -0.11206868 0.44387419 -0.08936712
v -0.08604798 0.44387419 -0.17867601
v -0.12364822 0.44387419 -0.15504276
v -0.06219013 0.44387419 -0.12914685
v -0.04413037 0.44387419 -0.19334177
v -0.03189366 0.44387419 -0.13974478
v -0.13974478 0.50000000 -0.03189366
v 0.11206868 0.50000000 0.08936712
v 0.13974478 0.50000000 -0.03189366
v 0.06219013 0.50000000 -0.12914685
v 0.03189366 0.50000000 -0.13974478
v -0.06219013 0.50000000 -0.12914685
v 0.00000000 0.50000000 -0.14333844
v -0.03189366 0.50000000 -0.13974478
v -0.08936712 0.50000000 -0.11206868
v -0.11206868 0.50000000 -0.08936712
v -0.12914685 0.50000000 -0.06219013
v -0.14333844 0.50000000 0.00000000
v -0.11206868 0.50000000 0.08936712
v -0.13974478 0.50000000 0.03189366
v -0.12914685 0.50000000 0.06219013
v -0.08936712 0.50000000 0.11206868
v -0.06219013 0.50000000 0.12914685
v -0.03189366 0.50000000 0.13974478
v 0.00000000 0.50000000 0.14333844
v 0.03189366 0.50000000 0.13974478
v 0.06219013 0.50000000 0.12914685
v 0.08936712 0.50000000 0.11206868
v 0.12914685 0.50000000 0.06219013
v 0.13974478 0.50000000 0.03189366
v 0.14333844 0.50000000 0.00000000
v 0.12914685 0.50000000 -0.06219013
v 0.11206868 0.50000000 -0.08936712
v 0.08936712 0.50000000 -0.11206868
v 0.06476059 -0.47150868 -0.04855589
v 0.06772203 -0.46681696 -0.09727815
v 0.09683726 -0.48522611 -0.08301168
v 0.08686321 -0.43653712 -0.14599209
v 0.12624364 -0.48590825 -0.10822547
v 0.07580774 -0.45402292 -0.13294014
v 0.10889928 -0.49285429 -0.04855589
v 0.14509367 -0.47335543 -0.11745916
v 0.14713174 -0.49910992 -0.04855589
v 0.12624364 -0.48590825 0.01110538
v 0.09683726 -0.48522611 -0.01410841
v 0.16921772 -0.48860348 -0.04855589
v 0.07580774 -0.45402292 0.03582005
v 0.06772203 -0.46681696 0.00015805
v 0.08686321 -0.43653712 0.04887199
v 0.03859848 -0.44841614 -0.01410841
v 0.02862443 -0.39972715 0.02033907
v 0.02537184 -0.42213755 0.01110538
v 0.02653645 -0.44078796 -0.04855589
v 0.00448375 -0.40893588 -0.04855589
v 0.03859848 -0.44841614 -0.08301168
v 0.00450038 -0.38447078 -0.04855589
v 0.02537184 -0.42213755 -0.10822547
v 0.02862443 -0.39972715 -0.11745916
v 0.14509367 -0.47335543 0.02033907
v 0.10600440 -0.40625728 -0.09727815
v 0.14834626 -0.45093669 -0.10822547
v 0.09791036 -0.41905966 -0.13294014
v 0.08686321 -0.43653712 -0.14599209
v 0.14509367 -0.47335543 -0.11745916
v 0.10896583 -0.40157389 -0.04855589
v 0.13511962 -0.42466644 -0.08301168
v 0.16921772 -0.48860348 -0.04855589
v 0.14718165 -0.43228631 -0.04855589
v 0.16923436 -0.46414667 -0.04855589
v 0.14509367 -0.47335543 0.02033907
v 0.13511962 -0.42466644 -0.01410841
v 0.14834626 -0.45093669 0.01110538
v 0.08686321 -0.43653712 0.04887199
v 0.10600440 -0.40625728 0.00015805
v 0.09791036 -0.41905966 0.03582005
v 0.04748278 -0.38717432 0.01110538
v 0.02862443 -0.39972715 0.02033907
v 0.07688917 -0.38784813 -0.01410841
v 0.02658636 -0.37396434 -0.04855589
v 0.00450038 -0.38447078 -0.04855589
v 0.06482714 -0.38022828 -0.04855589
v 0.07688917 -0.38784813 -0.08301168
v 0.04748278 -0.38717432 -0.10822547
v 0.02862443 -0.39972715 -0.11745916
v -0.04616012 -0.40335408 0.06427811
v -0.04724986 -0.39792202 0.01556417
v -0.01347619 -0.39115896 0.02983063
v -0.05428743 -0.36280071 -0.03315809
v 0.00827704 -0.37135228 0.00460853
v -0.05022793 -0.38308156 -0.02010615
v 0.03250923 -0.36649421 0.06427811
v 0.00051576 -0.38834727 0.06427811
v 0.01326823 -0.34925797 -0.00461684
v 0.00827704 -0.37135228 0.12394770
v -0.01347619 -0.39115896 0.09872559
v 0.04124380 -0.34365122 0.06427811
v -0.05022793 -0.38308156 0.14866237
v -0.04724986 -0.39792202 0.11299205
v 0.01326823 -0.34925797 0.13317306
v -0.08102352 -0.40469337 0.09872559
v -0.12184308 -0.37633515 0.13317306
v -0.10872459 -0.39480251 0.12394770
v -0.09501547 -0.40749676 0.06427811
v -0.14982698 -0.38194190 0.06427811
v -0.13295678 -0.39966061 0.06427811
v -0.08102352 -0.40469337 0.02983063
v -0.10872459 -0.39480251 0.00460853
v -0.12184308 -0.37633515 -0.00461684
v -0.05428743 -0.36280071 0.16171432
v -0.05835524 -0.34251990 -0.02010615
v -0.02755133 -0.32089975 0.02983063
v 0.00014974 -0.33079062 0.00460853
v -0.05428743 -0.36280071 -0.03315809
v 0.01326823 -0.34925797 -0.00461684
v -0.06132499 -0.32767111 0.01556417
v -0.06241474 -0.32223905 0.06427811
v 0.02438193 -0.32594085 0.06427811
v 0.04124380 -0.34365122 0.06427811
v -0.01355938 -0.31809636 0.06427811
v 0.01326823 -0.34925797 0.13317306
v -0.02755133 -0.32089975 0.09872559
v 0.00014974 -0.33079062 0.12394770
v -0.05428743 -0.36280071 0.16171432
v -0.06132499 -0.32767111 0.11299205
v -0.05835524 -0.34251990 0.14866237
v -0.12184308 -0.37633515 0.13317306
v -0.09510698 -0.33444249 0.09872559
v -0.11686022 -0.35424084 0.12394770
v -0.14109242 -0.35909894 0.06427811
v -0.14982698 -0.38194190 0.06427811
v -0.10909893 -0.33724588 0.06427811
v -0.09510698 -0.33444249 0.02983063
v -0.11686022 -0.35424084 0.00460853
v -0.12184308 -0.37633515 -0.00461684
v 0.09497388 -0.32865272 0.00000000
v 0.10046418 -0.32790405 -0.04871394
v 0.10512262 -0.36203540 -0.03444748
v 0.13595981 -0.32306259 -0.09743620
v 0.12354008 -0.38497820 -0.05966958
v 0.11547100 -0.32585764 -0.08438426
v 0.10705255 -0.37617711 0.00000000
v 0.14913653 -0.41960039 0.00000000
v 0.12687585 -0.40946827 0.00000000
v 0.12354008 -0.38497820 0.05966958
v 0.10512262 -0.36203540 0.03444748
v 0.14527669 -0.39132532 0.06889496
v 0.11547100 -0.32585764 0.08438426
v 0.10046418 -0.32790405 0.04871394
v 0.09580575 -0.29377267 0.03444748
v 0.13595981 -0.32306259 0.09743620
v 0.10740193 -0.26673709 0.05966958
v 0.09387582 -0.27963930 0.00000000
v 0.12664294 -0.25479986 0.06889496
v 0.10405783 -0.24225535 0.00000000
v 0.09580575 -0.29377267 -0.03444748
v 0.12278308 -0.22652480 0.00000000
v 0.10740193 -0.26673709 -0.05966958
v 0.14527669 -0.39132532 -0.06889496
v 0.12664294 -0.25479986 -0.06889496
v 0.17145543 -0.31822115 -0.04871394
v 0.16452601 -0.37938810 -0.05966958
v 0.15645693 -0.32026754 -0.08438426
v 0.13595981 -0.32306259 -0.09743620
v 0.14527669 -0.39132532 -0.06889496
v 0.17694573 -0.31747245 0.00000000
v 0.17611387 -0.35235250 -0.03444748
v 0.16786178 -0.40386983 0.00000000
v 0.14913653 -0.41960039 0.00000000
v 0.17804379 -0.36648587 0.00000000
v 0.14527669 -0.39132532 0.06889496
v 0.17611387 -0.35235250 0.03444748
v 0.16452601 -0.37938810 0.05966958
v 0.13595981 -0.32306259 0.09743620
v 0.17145543 -0.31822115 0.04871394
v 0.15645693 -0.32026754 0.08438426
v 0.12664294 -0.25479986 0.06889496
v 0.16679700 -0.28408978 0.03444748
v 0.14838785 -0.26114697 0.05966958
v 0.12278308 -0.22652480 0.00000000
v 0.16486708 -0.26994809 0.00000000
v 0.14504376 -0.23665690 0.00000000
v 0.16679700 -0.28408978 -0.03444748
v 0.14838785 -0.26114697 -0.05966958
v 0.12664294 -0.25479986 -0.06889496
v -0.01452434 -0.31940241 0.03822414
v -0.01263601 -0.31418659 -0.01048980
v 0.01975676 -0.32592421 0.00377666
v -0.00042425 -0.28051277 -0.05920374
v 0.04862244 -0.32028418 -0.02143713
v -0.00747845 -0.29995342 -0.04615180
v 0.03316641 -0.33079062 0.03822414
v 0.06434466 -0.30398795 -0.03067082
v 0.07185639 -0.32870262 0.03822414
v 0.01975676 -0.32592421 0.07267993
v 0.09118058 -0.31370412 0.03822414
v 0.04862244 -0.32028418 0.09789373
v -0.00747845 -0.29995342 0.12260840
v -0.01263601 -0.31418659 0.08694640
v 0.06434466 -0.30398795 0.10712741
v -0.04502047 -0.30244901 0.07267993
v -0.06520148 -0.25703757 0.10712741
v -0.06357103 -0.27962266 0.09789373
v -0.05843843 -0.29759093 0.03822414
v -0.09202909 -0.24731308 0.03822414
v -0.08680498 -0.27120421 0.03822414
v -0.04502047 -0.30244901 0.00377666
v -0.06357103 -0.27962266 -0.02143713
v -0.06520148 -0.25703757 -0.03067082
v -0.00042425 -0.28051277 0.13566034
v 0.01177919 -0.24683060 -0.01048980
v 0.06271421 -0.28139454 -0.02143713
v 0.00662164 -0.26106378 -0.04615180
v 0.06434466 -0.30398795 -0.03067082
v -0.00042425 -0.28051277 -0.05920374
v 0.01366752 -0.24161481 0.03822414
v 0.04416365 -0.25856820 0.00377666
v 0.08594816 -0.28981300 0.03822414
v 0.09118058 -0.31370412 0.03822414
v 0.05758161 -0.26342629 0.03822414
v 0.06271421 -0.28139454 0.09789373
v 0.06434466 -0.30398795 0.10712741
v 0.04416365 -0.25856820 0.07267993
v -0.00042425 -0.28051277 0.13566034
v 0.01177919 -0.24683060 0.08694640
v 0.00662164 -0.26106378 0.12260840
v -0.06520148 -0.25703757 0.10712741
v -0.02060526 -0.23509300 0.07267993
v -0.04947926 -0.24073304 0.09789373
v -0.07271321 -0.23231457 0.03822414
v -0.09202909 -0.24731308 0.03822414
v -0.03402323 -0.23022660 0.03822414
v -0.02060526 -0.23509300 0.00377666
v -0.04947926 -0.24073304 -0.02143713
v -0.06520148 -0.25703757 -0.03067082
v -0.16607328 -0.23873657 -0.02300103
v -0.16053307 -0.23880312 -0.07171497
v -0.16096563 -0.27325059 -0.05744851
v -0.12470469 -0.23926064 -0.12043723
v -0.14614182 -0.29865571 -0.08267062
v -0.14539315 -0.23899445 -0.10738529
v -0.14645792 -0.32337037 -0.02300103
v -0.16114864 -0.28751706 -0.02300103
v -0.12557815 -0.30814728 -0.09189599
v -0.16096563 -0.27325059 0.01144644
v -0.12594417 -0.33668851 -0.02300103
v -0.14614182 -0.29865571 0.03666855
v -0.14539315 -0.23899445 0.06138323
v -0.16053307 -0.23880312 0.02571291
v -0.12470469 -0.23926064 0.07443517
v -0.14463615 -0.17933317 0.03666855
v -0.16009218 -0.20435563 0.01144644
v -0.12383956 -0.17036569 0.04589392
v -0.15990917 -0.19008918 -0.02300103
v -0.12347353 -0.14183276 -0.02300103
v -0.14432003 -0.15461850 -0.02300103
v -0.16009218 -0.20435563 -0.05744851
v -0.14463615 -0.17933317 -0.08267062
v -0.12383956 -0.17036569 -0.09189599
v -0.12557815 -0.30814728 0.04589392
v -0.08888464 -0.23970985 -0.07171497
v -0.10478156 -0.29917979 -0.08267062
v -0.10402456 -0.23951852 -0.10738529
v -0.12557815 -0.30814728 -0.09189599
v -0.12470469 -0.23926064 -0.12043723
v -0.08334442 -0.23978472 -0.02300103
v -0.08932553 -0.27415732 -0.05744851
v -0.12594417 -0.33668851 -0.02300103
v -0.08950022 -0.28842379 -0.02300103
v -0.10509766 -0.32389447 -0.02300103
v -0.12557815 -0.30814728 0.04589392
v -0.08932553 -0.27415732 0.01144644
v -0.10478156 -0.29917979 0.03666855
v -0.10402456 -0.23951852 0.06138323
v -0.12470469 -0.23926064 0.07443517
v -0.08888464 -0.23970985 0.02571291
v -0.12383956 -0.17036569 0.04589392
v -0.08845207 -0.20527069 0.01144644
v -0.10326756 -0.17985725 0.03666855
v -0.12347353 -0.14183276 -0.02300103
v -0.08826906 -0.19099591 -0.02300103
v -0.10295978 -0.15514258 -0.02300103
v -0.08845207 -0.20527069 -0.05744851
v -0.10326756 -0.17985725 -0.08267062
v -0.12383956 -0.17036569 -0.09189599
v 0.03990450 -0.15296310 0.07851962
v 0.04005424 -0.15850331 0.02980568
v 0.00561508 -0.15944332 0.04407214
v 0.04103584 -0.19430672 -0.01891658
v -0.01917446 -0.17526536 0.01885835
v 0.04047017 -0.17363491 -0.00585632
v -0.00864306 -0.15983429 0.07851962
v -0.05636709 -0.19697701 0.07851962
v -0.04388081 -0.17593918 0.07851962
v -0.01917446 -0.17526536 0.13818921
v 0.00561508 -0.15944332 0.11296710
v 0.04047017 -0.17363491 0.16290387
v 0.04005424 -0.15850331 0.12724188
v -0.02783416 -0.19619505 0.14741457
v 0.07449340 -0.15755498 0.11296710
v 0.10990584 -0.19242670 0.14741457
v 0.10011480 -0.17200446 0.13818921
v 0.08875155 -0.15716401 0.07851962
v 0.12482115 -0.17133065 0.07851962
v 0.07449340 -0.15755498 0.04407214
v 0.10990584 -0.19242670 0.00962466
v 0.10011480 -0.17200446 0.01885835
v -0.02783416 -0.19619505 0.00962466
v 0.04103584 -0.19430672 0.17595582
v 0.13843045 -0.19164477 0.07851962
v 0.04201744 -0.23011846 0.02980568
v -0.01804312 -0.21661731 0.01885835
v 0.04160151 -0.21498685 -0.00585632
v 0.04103584 -0.19430672 -0.01891658
v -0.02783416 -0.19619505 0.00962466
v 0.04216717 -0.23565868 0.07851962
v 0.00757828 -0.23106678 0.04407214
v -0.05636709 -0.19697701 0.07851962
v -0.00668818 -0.23145776 0.07851962
v -0.04274948 -0.21729112 0.07851962
v -0.02783416 -0.19619505 0.14741457
v 0.00757828 -0.23106678 0.11296710
v -0.01804312 -0.21661731 0.13818921
v 0.04160151 -0.21498685 0.16290387
v 0.04103584 -0.19430672 0.17595582
v 0.04201744 -0.23011846 0.12724188
v 0.10990584 -0.19242670 0.14741457
v 0.07644827 -0.22917845 0.11296710
v 0.10124614 -0.21335641 0.13818921
v 0.13843045 -0.19164477 0.07851962
v 0.09071474 -0.22878747 0.07851962
v 0.12595249 -0.21267427 0.07851962
v 0.07644827 -0.22917845 0.04407214
v 0.10124614 -0.21335641 0.01885835
v 0.10990584 -0.19242670 0.00962466
v 0.03771670 0.18419959 0.07025921
v 0.03787476 0.17865938 0.02153695
v 0.00343560 0.17771106 0.03581173
v 0.03885635 0.14284765 -0.02717699
v -0.02135394 0.16188900 0.01058963
v 0.03829069 0.16351946 -0.01412505
v -0.04606030 0.16121520 0.07025921
v -0.01083087 0.17732008 0.07025921
v -0.03002196 0.14095932 0.00135594
v -0.02135394 0.16188900 0.12992048
v 0.00343560 0.17771106 0.10470669
v -0.03002196 0.14095932 0.13915417
v 0.03787476 0.17865938 0.11897315
v 0.03829069 0.16351946 0.15463514
v 0.07230560 0.17959938 0.10470669
v 0.10772636 0.14472767 0.13915417
v 0.09792700 0.16514992 0.12992048
v 0.08657206 0.17999036 0.07025921
v 0.12263335 0.16583204 0.07025921
v 0.07230560 0.17959938 0.03581173
v 0.13625097 0.14550960 0.07025921
v 0.09792700 0.16514992 0.01058963
v 0.10772636 0.14472767 0.00135594
v -0.05854657 0.14017736 0.07025921
v 0.03885635 0.14284765 0.16768709
v 0.03982964 0.10703592 0.02153695
v -0.02022261 0.12053706 0.01058963
v 0.03942202 0.12216752 -0.01412505
v 0.03885635 0.14284765 -0.02717699
v -0.03002196 0.14095932 0.00135594
v 0.03998769 0.10149569 0.07025921
v 0.00539880 0.10609591 0.03581173
v -0.04492896 0.11986325 0.07025921
v -0.05854657 0.14017736 0.07025921
v -0.00886767 0.10570493 0.07025921
v -0.03002196 0.14095932 0.13915417
v 0.00539880 0.10608759 0.10470669
v -0.02022261 0.12053706 0.12992048
v 0.03885635 0.14284765 0.16768709
v 0.03982964 0.10703592 0.11897315
v 0.03942202 0.12216752 0.15463514
v 0.10772636 0.14472767 0.13915417
v 0.07426879 0.10797592 0.10470669
v 0.09905834 0.12379796 0.12992048
v 0.12376469 0.12448010 0.07025921
v 0.13625097 0.14550960 0.07025921
v 0.08853526 0.10836690 0.07025921
v 0.07426879 0.10797592 0.03581173
v 0.09905834 0.12379796 0.01058963
v 0.10772636 0.14472767 0.00135594
v -0.13902939 0.10952319 -0.04376435
v -0.13348918 0.10945664 -0.09248661
v -0.13392175 0.07500916 -0.07821183
v -0.09766080 0.10899911 -0.14120055
v -0.11910625 0.04960404 -0.10343394
v -0.11834925 0.10926531 -0.12814861
v -0.13410475 0.06074270 -0.04376435
v -0.09853426 0.04011248 -0.11265931
v -0.11941404 0.02488937 -0.04376435
v -0.13392175 0.07500916 -0.00931687
v -0.09853426 0.04011248 0.02513060
v -0.11910625 0.04960404 0.01590523
v -0.11834925 0.10926531 0.04061991
v -0.13348918 0.10945664 0.00494959
v -0.13304828 0.14389580 -0.00931687
v -0.09679567 0.17789407 0.02513060
v -0.11759225 0.16892657 0.01590523
v -0.13287359 0.15817058 -0.04376435
v -0.11727615 0.19363293 -0.04376435
v -0.13304828 0.14389580 -0.07821183
v -0.09642964 0.20642699 -0.04376435
v -0.11759225 0.16892657 -0.10343394
v -0.09679567 0.17789407 -0.11265931
v -0.09890028 0.01157123 -0.04376435
v -0.09766080 0.10899911 0.05367185
v -0.06184075 0.10854991 -0.09248661
v -0.07773766 0.04907997 -0.10343394
v -0.07698067 0.10874123 -0.12814861
v -0.09853426 0.04011248 -0.11265931
v -0.09766080 0.10899911 -0.14120055
v -0.05630054 0.10847504 -0.04376435
v -0.06228164 0.07410243 -0.07821183
v -0.07805378 0.02436530 -0.04376435
v -0.09890028 0.01157123 -0.04376435
v -0.06245633 0.05983597 -0.04376435
v -0.09853426 0.04011248 0.02513060
v -0.06228164 0.07410243 -0.00931687
v -0.07773766 0.04907997 0.01590523
v -0.09766080 0.10899911 0.05367185
v -0.06184075 0.10854991 0.00494959
v -0.07698067 0.10874123 0.04061991
v -0.09679567 0.17789407 0.02513060
v -0.06140818 0.14298907 -0.00931687
v -0.07622367 0.16840250 0.01590523
v -0.07591589 0.19310886 -0.04376435
v -0.09642964 0.20642699 -0.04376435
v -0.06122517 0.15726385 -0.04376435
v -0.06140818 0.14298907 -0.07821183
v -0.07622367 0.16840250 -0.10343394
v -0.09679567 0.17789407 -0.11265931
v -0.01670382 0.01775198 -0.07748811
v -0.01481549 0.02296776 -0.12620205
v 0.01756896 0.01123017 -0.11193558
v -0.00261205 0.05664993 -0.17492431
v 0.04643463 0.01687020 -0.13715770
v -0.00965794 0.03720095 -0.16187236
v 0.06967691 0.00845174 -0.07748811
v 0.03098692 0.00636377 -0.07748811
v 0.06216518 0.03317473 -0.14638305
v 0.01756896 0.01123017 -0.04304063
v 0.08899278 0.02345024 -0.07748811
v 0.04643463 0.01687020 -0.01781852
v -0.00965794 0.03720095 0.00689615
v -0.01481549 0.02296776 -0.02877417
v 0.06216518 0.03317473 -0.00859315
v -0.04719995 0.03470536 -0.04304063
v -0.00261205 0.05664993 0.01994809
v -0.06575051 0.05753170 -0.01781852
v -0.06061791 0.03956345 -0.07748811
v -0.06738096 0.08012512 -0.00859315
v -0.08899278 0.06595016 -0.07748811
v -0.04719995 0.03470536 -0.11193558
v -0.09421689 0.08984129 -0.07748811
v -0.06575051 0.05753170 -0.13715770
v -0.06738096 0.08012512 -0.14638305
v 0.00959971 0.09032377 -0.12620205
v 0.06053473 0.05575983 -0.13715770
v 0.00443383 0.07609058 -0.16187236
v 0.06216518 0.03317473 -0.14638305
v -0.00261205 0.05664993 -0.17492431
v 0.01148804 0.09553956 -0.07748811
v 0.04198416 0.07859450 -0.11193558
v 0.08376868 0.04734138 -0.07748811
v 0.08899278 0.02345024 -0.07748811
v 0.05540212 0.07372809 -0.07748811
v 0.06216518 0.03317473 -0.00859315
v 0.04198416 0.07859450 -0.04304063
v 0.06053473 0.05575983 -0.01781852
v -0.00261205 0.05664993 0.01994809
v 0.00959971 0.09032377 -0.02877417
v 0.00443383 0.07609058 0.00689615
v -0.05165874 0.09642133 -0.01781852
v -0.06738096 0.08012512 -0.00859315
v -0.02279307 0.10206137 -0.04304063
v -0.09421689 0.08984129 -0.07748811
v -0.03620271 0.10692777 -0.07748811
v -0.07489269 0.10483980 -0.07748811
v -0.02279307 0.10206137 -0.11193558
v -0.05165874 0.09642133 -0.13715770
v -0.06738096 0.08012512 -0.14638305
v 0.06411174 0.02092138 0.02993046
v 0.06960204 0.02167005 -0.01878348
v 0.07426047 -0.01246131 -0.00451702
v 0.10509766 0.02651150 -0.06750574
v 0.09267794 -0.03540411 -0.02973913
v 0.08460886 0.02371644 -0.05445380
v 0.07619040 -0.02660299 0.02993046
v 0.11441454 -0.04175123 -0.03896450
v 0.09602203 -0.05989418 0.02993046
v 0.07426047 -0.01246131 0.06437793
v 0.11827438 -0.07002628 0.02993046
v 0.09267794 -0.03540411 0.08960004
v 0.08460886 0.02371644 0.11431471
v 0.06960204 0.02167005 0.07864440
v 0.10509766 0.02651150 0.12736666
v 0.06495192 0.05580143 0.06437793
v 0.07653979 0.08282868 0.08960004
v 0.06302200 0.06993480 0.02993046
v 0.09578911 0.09477425 0.09882541
v 0.07319569 0.10731875 0.02993046
v 0.06495192 0.05580143 -0.00451702
v 0.09192926 0.12304929 0.02993046
v 0.07653979 0.08282868 -0.02973913
v 0.09578911 0.09477425 -0.03896450
v 0.11441454 -0.04175123 0.09882541
v 0.14059329 0.03135295 -0.01878348
v 0.13366387 -0.02981399 -0.02973913
v 0.12559479 0.02930656 -0.05445380
v 0.10509766 0.02651150 -0.06750574
v 0.11441454 -0.04175123 -0.03896450
v 0.14609191 0.03210163 0.02993046
v 0.14525173 -0.00277842 -0.00451702
v 0.11827438 -0.07002628 0.02993046
v 0.14718165 -0.01691178 0.02993046
v 0.13700796 -0.05429574 0.02993046
v 0.11441454 -0.04175123 0.09882541
v 0.14525173 -0.00277842 0.06437793
v 0.13366387 -0.02981399 0.08960004
v 0.12559479 0.02930656 0.11431471
v 0.10509766 0.02651150 0.12736666
v 0.14059329 0.03135295 0.07864440
v 0.09578911 0.09477425 0.09882541
v 0.13594316 0.06548432 0.06437793
v 0.11752570 0.08842712 0.08960004
v 0.11418161 0.11291719 0.02993046
v 0.09192926 0.12304929 0.02993046
v 0.13401324 0.07962601 0.02993046
v 0.13594316 0.06548432 -0.00451702
v 0.11752570 0.08842712 -0.02973913
v 0.09578911 0.09477425 -0.03896450
v -0.05995242 -0.07010947 -0.03719263
v -0.06103384 -0.06467740 -0.08591489
v -0.02726017 -0.05790603 -0.07164011
v -0.06401192 -0.04982863 -0.12157689
v -0.00052407 -0.01601337 -0.10608758
v -0.00550694 -0.03810767 -0.09686221
v -0.01326823 -0.05510265 -0.03719263
v 0.02745982 -0.01040661 -0.03719263
v 0.01872525 -0.03324959 -0.03719263
v -0.02726017 -0.05790603 -0.00274515
v -0.00550694 -0.03810767 0.02246864
v -0.06401192 -0.04982863 0.04718331
v -0.06103384 -0.06467740 0.01152131
v -0.00052407 -0.01601337 0.03170233
v -0.09481583 -0.07144877 -0.00274515
v -0.06807973 -0.02954779 0.06024357
v -0.12251689 -0.06155791 0.02246864
v -0.10880778 -0.07425215 -0.03719263
v -0.16361096 -0.04869730 -0.03719263
v -0.14674909 -0.06641599 -0.03719263
v -0.09481583 -0.07144877 -0.07164011
v -0.12251689 -0.06155791 -0.09686221
v -0.13562706 -0.04309053 -0.10608758
v -0.06807973 -0.02954779 -0.13462883
v -0.13562706 -0.04309053 0.03170233
v -0.07511730 0.00557349 -0.08591489
v -0.01363425 0.00245401 -0.09686221
v -0.07213922 -0.00927527 -0.12157689
v -0.00052407 -0.01601337 -0.10608758
v -0.06807973 -0.02954779 -0.13462883
v -0.07620704 0.01100557 -0.03719263
v -0.04134363 0.01234487 -0.07164011
v 0.01059794 0.00731209 -0.03719263
v 0.02745982 -0.01040661 -0.03719263
v -0.02735168 0.01514825 -0.03719263
v -0.00052407 -0.01601337 0.03170233
v -0.04134363 0.01234487 -0.00274515
v -0.01363425 0.00245401 0.02246864
v -0.07213922 -0.00927527 0.04718331
v -0.06807973 -0.02954779 0.06024357
v -0.07511730 0.00557349 0.01152131
v -0.13562706 -0.04309053 0.03170233
v -0.10889096 -0.00119788 -0.00274515
v -0.13064420 -0.02099623 0.02246864
v -0.15487640 -0.02585432 -0.03719263
v -0.16361096 -0.04869730 -0.03719263
v -0.12288291 -0.00400126 -0.03719263
v -0.10889096 -0.00119788 -0.07164011
v -0.13064420 -0.02099623 -0.09686221
v -0.13562706 -0.04309053 -0.10608758
v 0.04246664 -0.12348185 0.04588560
v 0.04542808 -0.11879845 -0.00282834
v 0.07455163 -0.13720760 0.01143813
v 0.06457758 -0.08851861 -0.05155059
v 0.10395801 -0.13788141 -0.01378398
v 0.05352211 -0.10600439 -0.03849865
v 0.08660533 -0.14482747 0.04588560
v 0.12280805 -0.12533690 -0.02300935
v 0.12484611 -0.15109140 0.04588560
v 0.10395801 -0.13788141 0.10555519
v 0.07455163 -0.13720760 0.08033308
v 0.12280805 -0.12533690 0.11478056
v 0.05352211 -0.10600439 0.13026985
v 0.04542808 -0.11879845 0.09459954
v 0.06457758 -0.08851861 0.14332180
v 0.01631285 -0.10038931 0.08033308
v 0.00308621 -0.07411905 0.10555519
v 0.00425082 -0.09276944 0.04588560
v -0.01778525 -0.03645226 0.04588560
v -0.01780188 -0.06090905 0.04588560
v 0.01631285 -0.10038931 0.01143813
v 0.00308621 -0.07411905 -0.01378398
v 0.00633880 -0.05170032 -0.02300935
v 0.14693209 -0.14058496 0.04588560
v 0.00633880 -0.05170032 0.11478056
v 0.08371877 -0.05823877 -0.00282834
v 0.12606063 -0.10291817 -0.01378398
v 0.07562473 -0.07103284 -0.03849865
v 0.06457758 -0.08851861 -0.05155059
v 0.12280805 -0.12533690 -0.02300935
v 0.08668020 -0.05355538 0.04588560
v 0.11283400 -0.07664792 0.01143813
v 0.14693209 -0.14058496 0.04588560
v 0.12489602 -0.08426779 0.04588560
v 0.14694873 -0.11612817 0.04588560
v 0.12280805 -0.12533690 0.11478056
v 0.11283400 -0.07664792 0.08033308
v 0.12606063 -0.10291817 0.10555519
v 0.06457758 -0.08851861 0.14332180
v 0.08371877 -0.05823877 0.09459954
v 0.07562473 -0.07103284 0.13026985
v 0.00633880 -0.05170032 0.11478056
v 0.05459522 -0.03982963 0.08033308
v 0.02518883 -0.03915582 0.10555519
v -0.01778525 -0.03645226 0.04588560
v 0.04254151 -0.03220144 0.04588560
v 0.00430074 -0.02594582 0.04588560
v 0.05459522 -0.03982963 0.01143813
v 0.02518883 -0.03915582 -0.01378398
v 0.00633880 -0.05170032 -0.02300935
v -0.04072805 -0.15037600 -0.05744851
v -0.04072805 -0.14483579 -0.10616245
v -0.00628057 -0.14483579 -0.09189599
v -0.04072805 -0.10900742 -0.15488472
v 0.01894154 -0.12968755 -0.11710977
v -0.04072805 -0.12968755 -0.14182445
v 0.00798589 -0.14483579 -0.05744851
v 0.02816691 -0.10900742 -0.12634347
v 0.04365621 -0.12968755 -0.05744851
v 0.01894154 -0.12968755 0.00222108
v -0.00628057 -0.14483579 -0.02300103
v 0.02816691 -0.10900742 0.01144644
v -0.04072805 -0.12968755 0.02693575
v -0.04072805 -0.14483579 -0.00872625
v -0.07517553 -0.14483579 -0.02300103
v -0.10962300 -0.10900742 0.01144644
v -0.10039763 -0.12968755 0.00222108
v -0.08944199 -0.14483579 -0.05744851
v -0.12511231 -0.12968755 -0.05744851
v -0.07517553 -0.14483579 -0.09189599
v -0.13816425 -0.10900742 -0.05744851
v -0.10039763 -0.12968755 -0.11710977
v -0.10962300 -0.10900742 -0.12634347
v 0.05670815 -0.10900742 -0.05744851
v -0.04072805 -0.10900742 0.03998769
v -0.04072805 -0.07317904 -0.10616245
v 0.01894154 -0.08832728 -0.11710977
v -0.04072805 -0.08832728 -0.14182445
v 0.02816691 -0.10900742 -0.12634347
v -0.04072805 -0.10900742 -0.15488472
v -0.04072805 -0.06763883 -0.05744851
v -0.00628057 -0.07317904 -0.09189599
v 0.04365621 -0.08832728 -0.05744851
v 0.05670815 -0.10900742 -0.05744851
v 0.00798589 -0.07317904 -0.05744851
v 0.02816691 -0.10900742 0.01144644
v -0.00628057 -0.07317904 -0.02300103
v 0.01894154 -0.08832728 0.00222108
v -0.04072805 -0.08832728 0.02693575
v -0.04072805 -0.10900742 0.03998769
v -0.04072805 -0.07317904 -0.00872625
v -0.10962300 -0.10900742 0.01144644
v -0.07517553 -0.07317904 -0.02300103
v -0.10039763 -0.08832728 0.00222108
v -0.12511231 -0.08832728 -0.05744851
v -0.13816425 -0.10900742 -0.05744851
v -0.08944199 -0.07317904 -0.05744851
v -0.07517553 -0.07317904 -0.09189599
v -0.10039763 -0.08832728 -0.11710977
v -0.10962300 -0.10900742 -0.12634347
f 1 2 3
f 4 5 2
f 6 7 5
f 8 9 7
f 10 11 9
f 12 13 11
f 14 15 13
f 16 17 15
f 18 19 17
f 20 21 19
f 22 23 21
f 24 25 23
f 26 27 25
f 28 29 27
f 30 31 29
f 32 33 31
f 34 35 33
f 36 37 35
f 38 39 37
f 40 41 39
f 42 43 41
f 44 45 43
f 46 47 45
f 48 49 47
f 50 51 49
f 52 53 51
f 54 55 53
f 56 57 55
f 33 58 59
f 60 61 62
f 35 63 58
f 64 61 65
f 39 63 37
f 64 66 67
f 39 68 69
f 70 66 71
f 41 72 68
f 70 73 74
f 45 72 43
f 75 76 73
f 45 77 78
f 79 80 76
f 81 82 83
f 47 84 77
f 85 86 80
f 87 88 81
f 49 89 84
f 90 91 87
f 53 89 51
f 90 92 93
f 53 94 95
f 2 96 3
f 97 92 98
f 57 94 55
f 5 99 2
f 100 101 97
f 102 103 104
f 85 105 103
f 79 106 105
f 75 107 106
f 70 108 107
f 71 109 108
f 64 110 109
f 65 111 110
f 60 112 111
f 113 114 112
f 115 116 114
f 117 118 116
f 119 120 118
f 121 122 120
f 123 124 122
f 125 126 124
f 127 128 126
f 129 130 128
f 131 132 130
f 133 134 132
f 135 136 134
f 137 138 136
f 100 139 138
f 97 140 139
f 98 141 140
f 90 142 141
f 87 143 142
f 81 144 143
f 94 82 88
f 95 88 91
f 89 91 93
f 84 93 92
f 77 92 101
f 78 101 145
f 72 145 146
f 68 146 147
f 69 147 148
f 63 148 149
f 58 149 150
f 59 150 151
f 152 151 153
f 154 153 155
f 156 155 157
f 158 157 159
f 160 159 161
f 162 161 163
f 164 163 165
f 166 165 62
f 167 62 61
f 168 61 67
f 169 67 66
f 170 66 74
f 171 74 73
f 172 73 76
f 99 76 80
f 96 80 86
f 60 165 113
f 33 152 31
f 115 165 163
f 31 154 29
f 117 163 161
f 27 154 156
f 119 161 159
f 25 156 158
f 119 157 121
f 25 160 23
f 121 155 123
f 23 162 21
f 125 155 153
f 21 164 19
f 127 153 151
f 19 166 17
f 127 150 129
f 17 167 15
f 131 150 149
f 15 168 13
f 131 148 133
f 13 169 11
f 133 147 135
f 11 170 9
f 137 147 146
f 9 171 7
f 137 145 100
f 7 172 5
f 1 4 2
f 4 6 5
f 6 8 7
f 8 10 9
f 10 12 11
f 12 14 13
f 14 16 15
f 16 18 17
f 18 20 19
f 20 22 21
f 22 24 23
f 24 26 25
f 26 28 27
f 28 30 29
f 30 32 31
f 32 34 33
f 34 36 35
f 36 38 37
f 38 40 39
f 40 42 41
f 42 44 43
f 44 46 45
f 46 48 47
f 48 50 49
f 50 52 51
f 52 54 53
f 54 56 55
f 56 173 57
f 33 35 58
f 60 65 61
f 35 37 63
f 64 67 61
f 39 69 63
f 64 71 66
f 39 41 68
f 70 74 66
f 41 43 72
f 70 75 73
f 45 78 72
f 75 79 76
f 45 47 77
f 79 85 80
f 81 88 82
f 47 49 84
f 85 102 86
f 87 91 88
f 49 51 89
f 90 93 91
f 53 95 89
f 90 98 92
f 53 55 94
f 2 99 96
f 97 101 92
f 57 174 94
f 5 172 99
f 100 145 101
f 102 85 103
f 85 79 105
f 79 75 106
f 75 70 107
f 70 71 108
f 71 64 109
f 64 65 110
f 65 60 111
f 60 113 112
f 113 115 114
f 115 117 116
f 117 119 118
f 119 121 120
f 121 123 122
f 123 125 124
f 125 127 126
f 127 129 128
f 129 131 130
f 131 133 132
f 133 135 134
f 135 137 136
f 137 100 138
f 100 97 139
f 97 98 140
f 98 90 141
f 90 87 142
f 87 81 143
f 81 83 144
f 94 174 82
f 95 94 88
f 89 95 91
f 84 89 93
f 77 84 92
f 78 77 101
f 72 78 145
f 68 72 146
f 69 68 147
f 63 69 148
f 58 63 149
f 59 58 150
f 152 59 151
f 154 152 153
f 156 154 155
f 158 156 157
f 160 158 159
f 162 160 161
f 164 162 163
f 166 164 165
f 167 166 62
f 168 167 61
f 169 168 67
f 170 169 66
f 171 170 74
f 172 171 73
f 99 172 76
f 96 99 80
f 60 62 165
f 33 59 152
f 115 113 165
f 31 152 154
f 117 115 163
f 27 29 154
f 119 117 161
f 25 27 156
f 119 159 157
f 25 158 160
f 121 157 155
f 23 160 162
f 125 123 155
f 21 162 164
f 127 125 153
f 19 164 166
f 127 151 150
f 17 166 167
f 131 129 150
f 15 167 168
f 131 149 148
f 13 168 169
f 133 148 147
f 11 169 170
f 137 135 147
f 9 170 171
f 137 146 145
f 7 171 172
f 175 176 177
f 177 178 179
f 179 180 177
f 181 182 175
f 183 184 175
f 175 185 186
f 186 187 188
f 188 189 190
f 190 191 176
f 176 192 193
f 193 194 195
f 195 196 197
f 197 198 195
f 199 200 201
f 201 202 177
f 177 180 181
f 182 183 175
f 175 186 176
f 188 190 176
f 176 193 195
f 195 198 199
f 199 201 177
f 177 181 175
f 186 188 176
f 176 195 199
f 199 177 176
f 203 204 205
f 206 207 208
f 204 207 205
f 207 209 205
f 203 205 209
f 210 211 207
f 209 212 213
f 203 209 213
f 211 214 212
f 212 215 213
f 203 213 215
f 214 216 212
f 216 217 215
f 203 215 217
f 218 219 216
f 203 217 220
f 221 222 219
f 219 220 217
f 203 220 223
f 224 225 222
f 222 223 220
f 203 223 204
f 225 206 208
f 223 208 204
f 206 210 207
f 204 208 207
f 207 211 209
f 210 226 211
f 209 211 212
f 211 226 214
f 212 216 215
f 214 218 216
f 216 219 217
f 218 221 219
f 221 224 222
f 219 222 220
f 224 227 225
f 222 225 223
f 225 227 206
f 223 225 208
f 228 229 230
f 230 231 232
f 228 233 234
f 229 235 231
f 234 233 236
f 234 237 229
f 237 238 235
f 236 233 239
f 236 240 237
f 240 241 238
f 239 233 242
f 239 243 240
f 241 244 245
f 242 233 246
f 242 244 243
f 245 247 248
f 246 233 249
f 246 247 244
f 249 233 250
f 247 250 251
f 248 251 252
f 250 230 251
f 251 232 252
f 250 233 228
f 228 234 229
f 230 229 231
f 229 237 235
f 234 236 237
f 237 240 238
f 236 239 240
f 240 243 241
f 239 242 243
f 241 243 244
f 242 246 244
f 245 244 247
f 246 249 247
f 247 249 250
f 248 247 251
f 250 228 230
f 251 230 232
f 253 254 255
f 256 257 254
f 258 259 257
f 260 261 259
f 262 263 261
f 264 265 263
f 266 267 265
f 268 269 267
f 270 271 269
f 272 273 271
f 274 275 273
f 276 277 275
f 278 279 277
f 280 281 279
f 282 283 281
f 284 285 283
f 286 287 285
f 288 289 287
f 290 291 289
f 292 293 291
f 294 295 293
f 296 297 295
f 298 299 297
f 300 301 299
f 302 303 301
f 304 305 303
f 306 307 305
f 308 309 307
f 253 256 254
f 256 258 257
f 258 260 259
f 260 262 261
f 262 264 263
f 264 266 265
f 266 268 267
f 268 270 269
f 270 272 271
f 272 274 273
f 274 276 275
f 276 278 277
f 278 280 279
f 280 282 281
f 282 284 283
f 284 286 285
f 286 288 287
f 288 290 289
f 290 292 291
f 292 294 293
f 294 296 295
f 296 298 297
f 298 300 299
f 300 302 301
f 302 304 303
f 304 306 305
f 306 308 307
f 308 310 309
f 311 312 313
f 314 315 316
f 313 317 318
f 316 319 320
f 318 321 322
f 320 323 324
f 325 326 327
f 322 328 329
f 324 330 331
f 327 332 333
f 331 334 335
f 333 336 337
f 335 338 339
f 337 340 341
f 339 342 343
f 341 344 345
f 343 346 347
f 345 348 349
f 347 350 351
f 349 352 353
f 351 354 355
f 353 356 357
f 355 358 359
f 357 360 361
f 359 362 363
f 361 364 365
f 363 366 311
f 365 367 314
f 311 366 312
f 314 367 315
f 313 312 317
f 316 315 319
f 318 317 321
f 320 319 323
f 325 368 326
f 322 321 328
f 324 323 330
f 327 326 332
f 331 330 334
f 333 332 336
f 335 334 338
f 337 336 340
f 339 338 342
f 341 340 344
f 343 342 346
f 345 344 348
f 347 346 350
f 349 348 352
f 351 350 354
f 353 352 356
f 355 354 358
f 357 356 360
f 359 358 362
f 361 360 364
f 363 362 366
f 365 364 367
f 369 370 371
f 372 373 369
f 374 375 372
f 376 377 374
f 376 378 379
f 380 378 381
f 380 382 383
f 384 382 385
f 384 386 387
f 388 389 386
f 390 391 389
f 392 391 393
f 394 395 392
f 394 396 397
f 398 396 399
f 400 401 398
f 402 403 400
f 404 405 402
f 406 407 404
f 408 409 406
f 408 410 411
f 412 413 410
f 414 413 415
f 414 416 417
f 418 416 419
f 418 420 421
f 422 423 420
f 371 423 424
f 369 373 370
f 372 375 373
f 374 377 375
f 376 379 377
f 376 381 378
f 380 383 378
f 380 385 382
f 384 387 382
f 384 388 386
f 388 390 389
f 390 393 391
f 392 395 391
f 394 397 395
f 394 399 396
f 398 401 396
f 400 403 401
f 402 405 403
f 404 407 405
f 406 409 407
f 408 411 409
f 408 412 410
f 412 415 413
f 414 417 413
f 414 419 416
f 418 421 416
f 418 422 420
f 422 424 423
f 371 370 423
f 425 426 427
f 428 429 430
f 431 432 430
f 430 433 434
f 434 435 430
f 425 436 437
f 438 439 437
f 437 440 441
f 441 442 443
f 443 444 445
f 445 446 443
f 426 447 448
f 448 449 426
f 427 450 428
f 451 452 428
f 429 431 430
f 430 435 425
f 436 438 437
f 437 441 443
f 443 446 426
f 426 449 427
f 450 451 428
f 428 430 425
f 425 437 443
f 443 426 425
f 427 428 425
f 453 454 455
f 456 457 458
f 458 455 454
f 457 459 455
f 453 455 459
f 460 461 457
f 459 462 463
f 453 459 463
f 464 462 461
f 463 465 466
f 453 463 466
f 462 467 465
f 465 468 466
f 453 466 468
f 465 469 470
f 453 468 471
f 469 472 470
f 470 471 468
f 453 471 473
f 474 475 472
f 472 473 471
f 453 473 454
f 476 458 475
f 475 454 473
f 456 460 457
f 458 457 455
f 457 461 459
f 460 464 461
f 459 461 462
f 464 477 462
f 463 462 465
f 462 477 467
f 465 470 468
f 465 467 469
f 469 474 472
f 470 472 471
f 474 476 475
f 472 475 473
f 476 456 458
f 475 458 454
f 478 479 480
f 481 479 482
f 478 483 484
f 479 485 482
f 484 483 486
f 484 487 479
f 487 488 485
f 486 483 489
f 486 490 487
f 490 491 488
f 489 483 492
f 489 493 490
f 491 494 495
f 492 483 496
f 492 494 493
f 495 497 498
f 496 483 499
f 496 497 494
f 499 483 500
f 499 501 497
f 497 502 498
f 501 478 480
f 501 481 502
f 500 483 478
f 478 484 479
f 481 480 479
f 479 487 485
f 484 486 487
f 487 490 488
f 486 489 490
f 490 493 491
f 489 492 493
f 491 493 494
f 492 496 494
f 495 494 497
f 496 499 497
f 499 500 501
f 497 501 502
f 501 500 478
f 501 480 481
f 503 504 505
f 506 507 508
f 508 505 504
f 505 509 510
f 503 505 510
f 511 509 507
f 510 512 513
f 503 510 513
f 514 512 509
f 513 515 516
f 503 513 516
f 517 515 512
f 515 518 516
f 503 516 518
f 515 519 520
f 503 518 521
f 520 522 523
f 520 521 518
f 503 521 524
f 522 525 523
f 523 524 521
f 503 524 504
f 526 508 525
f 525 504 524
f 506 511 507
f 508 507 505
f 505 507 509
f 511 514 509
f 510 509 512
f 514 517 512
f 513 512 515
f 517 527 515
f 515 520 518
f 515 527 519
f 520 519 522
f 520 523 521
f 522 526 525
f 523 525 524
f 526 506 508
f 525 508 504
f 528 529 530
f 531 530 532
f 533 534 529
f 532 535 536
f 529 534 537
f 529 535 530
f 535 538 536
f 537 534 539
f 537 540 535
f 540 541 538
f 539 534 542
f 539 543 540
f 543 544 541
f 542 534 545
f 542 546 543
f 544 547 548
f 545 534 549
f 545 547 546
f 549 534 550
f 549 551 547
f 547 552 548
f 550 528 551
f 552 528 531
f 550 534 533
f 528 533 529
f 531 528 530
f 532 530 535
f 529 537 535
f 535 540 538
f 537 539 540
f 540 543 541
f 539 542 543
f 543 546 544
f 542 545 546
f 544 546 547
f 545 549 547
f 549 550 551
f 547 551 552
f 550 533 528
f 552 551 528
f 553 554 555
f 556 557 558
f 558 555 554
f 557 559 555
f 553 555 559
f 557 560 561
f 559 562 563
f 553 559 563
f 561 564 562
f 563 565 566
f 553 563 566
f 564 565 562
f 565 567 566
f 553 566 567
f 568 569 565
f 553 567 570
f 571 572 569
f 569 570 567
f 553 570 573
f 574 575 572
f 572 573 570
f 553 573 554
f 575 556 558
f 575 554 573
f 556 576 557
f 558 557 555
f 557 561 559
f 557 576 560
f 559 561 562
f 561 560 564
f 563 562 565
f 564 568 565
f 565 569 567
f 568 571 569
f 571 574 572
f 569 572 570
f 574 577 575
f 572 575 573
f 575 577 556
f 575 558 554
f 578 579 580
f 581 579 582
f 578 583 584
f 582 585 586
f 584 583 587
f 584 585 579
f 585 588 586
f 587 583 589
f 587 590 585
f 590 591 588
f 589 583 592
f 589 593 590
f 593 594 591
f 592 583 595
f 592 596 593
f 596 597 594
f 595 583 598
f 595 599 596
f 598 583 600
f 598 601 599
f 597 601 602
f 600 580 601
f 602 580 581
f 600 583 578
f 578 584 579
f 581 580 579
f 582 579 585
f 584 587 585
f 585 590 588
f 587 589 590
f 590 593 591
f 589 592 593
f 593 596 594
f 592 595 596
f 596 599 597
f 595 598 599
f 598 600 601
f 597 599 601
f 600 578 580
f 602 601 580
f 603 604 605
f 606 607 608
f 604 607 605
f 607 609 605
f 603 605 609
f 610 611 607
f 611 612 609
f 603 609 612
f 613 614 611
f 612 615 616
f 603 612 616
f 617 615 614
f 615 618 616
f 603 616 618
f 615 619 620
f 603 618 621
f 620 622 623
f 620 621 618
f 603 621 624
f 622 625 623
f 623 624 621
f 603 624 604
f 626 608 625
f 624 608 604
f 606 610 607
f 604 608 607
f 607 611 609
f 610 613 611
f 611 614 612
f 613 617 614
f 612 614 615
f 617 627 615
f 615 620 618
f 615 627 619
f 620 619 622
f 620 623 621
f 622 626 625
f 623 625 624
f 626 606 608
f 624 625 608
f 628 629 630
f 630 631 632
f 628 633 634
f 631 635 636
f 634 633 637
f 634 635 629
f 636 638 639
f 637 633 640
f 635 640 638
f 638 641 639
f 640 633 642
f 640 643 638
f 643 644 641
f 642 633 645
f 642 646 643
f 644 647 648
f 645 633 649
f 645 647 646
f 649 633 650
f 649 651 647
f 647 652 648
f 650 630 651
f 652 630 632
f 650 633 628
f 628 634 629
f 630 629 631
f 631 629 635
f 634 637 635
f 636 635 638
f 635 637 640
f 638 643 641
f 640 642 643
f 643 646 644
f 642 645 646
f 644 646 647
f 645 649 647
f 649 650 651
f 647 651 652
f 650 628 630
f 652 651 630
f 653 654 655
f 656 657 658
f 658 655 654
f 655 659 660
f 653 655 660
f 661 659 657
f 659 662 660
f 653 660 662
f 663 664 659
f 662 665 666
f 653 662 666
f 664 667 665
f 666 668 669
f 653 666 669
f 665 670 668
f 653 669 671
f 668 672 673
f 669 673 671
f 653 671 674
f 672 675 673
f 673 674 671
f 653 674 654
f 676 658 675
f 675 654 674
f 656 661 657
f 658 657 655
f 655 657 659
f 661 663 659
f 659 664 662
f 663 677 664
f 662 664 665
f 664 677 667
f 666 665 668
f 665 667 670
f 668 670 672
f 669 668 673
f 672 676 675
f 673 675 674
f 676 656 658
f 675 658 654
f 678 679 680
f 680 681 682
f 678 683 684
f 679 685 681
f 684 683 686
f 684 687 679
f 687 688 685
f 686 683 689
f 687 689 690
f 688 691 692
f 689 683 693
f 689 691 690
f 691 694 692
f 693 683 695
f 693 696 691
f 696 697 694
f 695 683 698
f 695 699 696
f 698 683 700
f 698 701 699
f 699 702 697
f 701 678 680
f 701 682 702
f 700 683 678
f 678 684 679
f 680 679 681
f 679 687 685
f 684 686 687
f 687 690 688
f 687 686 689
f 688 690 691
f 689 693 691
f 691 696 694
f 693 695 696
f 696 699 697
f 695 698 699
f 698 700 701
f 699 701 702
f 701 700 678
f 701 680 682
f 703 704 705
f 706 707 708
f 708 705 704
f 707 709 705
f 703 705 709
f 707 710 711
f 709 712 713
f 703 709 713
f 710 712 711
f 713 714 715
f 703 713 715
f 716 714 712
f 714 717 715
f 703 715 717
f 714 718 719
f 703 717 720
f 718 721 719
f 719 720 717
f 703 720 722
f 721 723 724
f 721 722 720
f 703 722 704
f 723 708 724
f 724 704 722
f 706 725 707
f 708 707 705
f 707 711 709
f 707 725 710
f 709 711 712
f 710 716 712
f 713 712 714
f 716 726 714
f 714 719 717
f 714 726 718
f 718 727 721
f 719 721 720
f 721 727 723
f 721 724 722
f 723 706 708
f 724 708 704
f 728 729 730
f 731 729 732
f 728 733 734
f 729 735 732
f 734 733 736
f 734 737 729
f 737 738 735
f 736 733 739
f 736 740 737
f 738 741 742
f 739 733 743
f 739 741 740
f 741 744 742
f 743 733 745
f 743 746 741
f 746 747 744
f 745 733 748
f 745 749 746
f 748 733 750
f 748 751 749
f 749 752 747
f 750 730 751
f 752 730 731
f 750 733 728
f 728 734 729
f 731 730 729
f 729 737 735
f 734 736 737
f 737 740 738
f 736 739 740
f 738 740 741
f 739 743 741
f 741 746 744
f 743 745 746
f 746 749 747
f 745 748 749
f 748 750 751
f 749 751 752
f 750 728 730
f 752 751 730
f 753 754 755
f 756 757 758
f 754 757 755
f 755 759 760
f 753 755 760
f 761 759 757
f 760 762 763
f 753 760 763
f 759 764 762
f 762 765 763
f 753 763 765
f 764 766 762
f 766 767 765
f 753 765 767
f 766 768 769
f 753 767 770
f 768 771 769
f 769 770 767
f 753 770 772
f 773 774 771
f 771 772 770
f 753 772 754
f 775 758 774
f 774 754 772
f 756 761 757
f 754 758 757
f 755 757 759
f 761 776 759
f 760 759 762
f 759 776 764
f 762 766 765
f 764 777 766
f 766 769 767
f 766 777 768
f 768 773 771
f 769 771 770
f 773 775 774
f 771 774 772
f 775 756 758
f 774 758 754
f 778 779 780
f 781 779 782
f 778 783 784
f 782 785 786
f 784 783 787
f 784 785 779
f 785 788 786
f 787 783 789
f 787 790 785
f 790 791 788
f 789 783 792
f 789 793 790
f 793 794 791
f 792 783 795
f 792 796 793
f 794 797 798
f 795 783 799
f 795 797 796
f 799 783 800
f 799 801 797
f 797 802 798
f 800 780 801
f 802 780 781
f 800 783 778
f 778 784 779
f 781 780 779
f 782 779 785
f 784 787 785
f 785 790 788
f 787 789 790
f 790 793 791
f 789 792 793
f 793 796 794
f 792 795 796
f 794 796 797
f 795 799 797
f 799 800 801
f 797 801 802
f 800 778 780
f 802 801 780
f 803 804 805
f 806 807 808
f 804 807 805
f 807 809 805
f 803 805 809
f 810 811 807
f 811 812 809
f 803 809 812
f 811 813 814
f 812 815 816
f 803 812 816
f 813 815 814
f 815 817 816
f 803 816 817
f 815 818 819
f 803 817 820
f 818 821 819
f 817 821 820
f 803 820 822
f 823 824 821
f 820 824 822
f 803 822 804
f 825 808 824
f 824 804 822
f 806 810 807
f 804 808 807
f 807 811 809
f 810 826 811
f 811 814 812
f 811 826 813
f 812 814 815
f 813 827 815
f 815 819 817
f 815 827 818
f 818 823 821
f 817 819 821
f 823 825 824
f 820 821 824
f 825 806 808
f 824 808 804
f 828 829 830
f 830 831 832
f 828 833 834
f 831 835 836
f 834 833 837
f 834 835 829
f 835 838 836
f 837 833 839
f 837 840 835
f 840 841 838
f 839 833 842
f 839 843 840
f 843 844 841
f 842 833 845
f 842 846 843
f 844 847 848
f 845 833 849
f 845 847 846
f 849 833 850
f 849 851 847
f 848 851 852
f 851 828 830
f 851 832 852
f 850 833 828
f 828 834 829
f 830 829 831
f 831 829 835
f 834 837 835
f 835 840 838
f 837 839 840
f 840 843 841
f 839 842 843
f 843 846 844
f 842 845 846
f 844 846 847
f 845 849 847
f 849 850 851
f 848 847 851
f 851 850 828
f 851 830 832
f 853 854 855
f 856 857 858
f 858 855 854
f 855 859 860
f 853 855 860
f 861 859 857
f 859 862 860
f 853 860 862
f 863 864 859
f 862 865 866
f 853 862 866
f 867 865 864
f 865 868 866
f 853 866 868
f 869 870 865
f 853 868 871
f 872 873 870
f 870 871 868
f 853 871 874
f 875 876 873
f 871 876 874
f 853 874 854
f 877 858 876
f 876 854 874
f 856 861 857
f 858 857 855
f 855 857 859
f 861 863 859
f 859 864 862
f 863 867 864
f 862 864 865
f 867 869 865
f 865 870 868
f 869 872 870
f 872 875 873
f 870 873 871
f 875 877 876
f 871 873 876
f 877 856 858
f 876 858 854
f 878 879 880
f 880 881 882
f 878 883 884
f 881 885 886
f 884 883 887
f 884 885 879
f 885 888 886
f 887 883 889
f 887 890 885
f 890 891 888
f 889 883 892
f 889 893 890
f 891 894 895
f 892 883 896
f 892 894 893
f 894 897 895
f 896 883 898
f 896 899 894
f 898 883 900
f 898 901 899
f 899 902 897
f 900 880 901
f 902 880 882
f 900 883 878
f 878 884 879
f 880 879 881
f 881 879 885
f 884 887 885
f 885 890 888
f 887 889 890
f 890 893 891
f 889 892 893
f 891 893 894
f 892 896 894
f 894 899 897
f 896 898 899
f 898 900 901
f 899 901 902
f 900 878 880
f 902 901 880
f 903 904 905
f 906 907 908
f 904 907 905
f 907 909 905
f 903 905 909
f 910 911 907
f 911 912 909
f 903 909 912
f 913 914 911
f 912 915 916
f 903 912 916
f 914 917 915
f 915 918 916
f 903 916 918
f 917 919 915
f 903 918 920
f 921 922 919
f 918 922 920
f 903 920 923
f 924 925 922
f 922 923 920
f 903 923 904
f 926 908 925
f 925 904 923
f 906 910 907
f 904 908 907
f 907 911 909
f 910 913 911
f 911 914 912
f 913 927 914
f 912 914 915
f 914 927 917
f 915 919 918
f 917 921 919
f 921 924 922
f 918 919 922
f 924 926 925
f 922 925 923
f 926 906 908
f 925 908 904
f 928 929 930
f 931 929 932
f 928 933 934
f 929 935 932
f 934 933 936
f 934 937 929
f 937 938 935
f 936 933 939
f 936 940 937
f 938 941 942
f 939 933 943
f 939 941 940
f 941 944 942
f 943 933 945
f 943 946 941
f 944 947 948
f 945 933 949
f 945 947 946
f 949 933 950
f 949 951 947
f 948 951 952
f 950 930 951
f 952 930 931
f 950 933 928
f 928 934 929
f 931 930 929
f 929 937 935
f 934 936 937
f 937 940 938
f 936 939 940
f 938 940 941
f 939 943 941
f 941 946 944
f 943 945 946
f 944 946 947
f 945 949 947
f 949 950 951
f 948 947 951
f 950 928 930
f 952 951 930
f 953 954 955
f 956 957 958
f 956 955 954
f 958 959 955
f 953 955 959
f 958 960 961
f 961 962 959
f 953 959 962
f 960 963 961
f 962 964 965
f 953 962 965
f 966 964 963
f 964 967 965
f 953 965 967
f 968 969 964
f 953 967 970
f 969 971 972
f 969 970 967
f 953 970 973
f 971 974 972
f 970 974 973
f 953 973 954
f 975 956 974
f 974 954 973
f 956 976 957
f 956 958 955
f 958 961 959
f 958 957 960
f 961 963 962
f 960 966 963
f 962 963 964
f 966 968 964
f 964 969 967
f 968 977 969
f 969 977 971
f 969 972 970
f 971 975 974
f 970 972 974
f 975 976 956
f 974 956 954
f 978 979 980
f 980 981 982
f 978 983 984
f 981 985 986
f 984 983 987
f 984 985 979
f 985 988 986
f 987 983 989
f 987 990 985
f 988 991 992
f 989 983 993
f 989 991 990
f 991 994 992
f 993 983 995
f 991 995 996
f 994 997 998
f 995 983 999
f 995 997 996
f 999 983 1000
f 999 1001 997
f 998 1001 1002
f 1000 980 1001
f 1002 980 982
f 1000 983 978
f 978 984 979
f 980 979 981
f 981 979 985
f 984 987 985
f 985 990 988
f 987 989 990
f 988 990 991
f 989 993 991
f 991 996 994
f 991 993 995
f 994 996 997
f 995 999 997
f 999 1000 1001
f 998 997 1001
f 1000 978 980
f 1002 1001 980
f 1003 1004 1005
f 1006 1007 1008
f 1004 1007 1005
f 1007 1009 1005
f 1003 1005 1009
f 1010 1011 1007
f 1009 1012 1013
f 1003 1009 1013
f 1011 1014 1012
f 1013 1015 1016
f 1003 1013 1016
f 1012 1017 1015
f 1015 1018 1016
f 1003 1016 1018
f 1017 1019 1015
f 1003 1018 1020
f 1019 1021 1022
f 1019 1020 1018
f 1003 1020 1023
f 1021 1024 1022
f 1022 1023 1020
f 1003 1023 1004
f 1025 1008 1024
f 1024 1004 1023
f 1006 1010 1007
f 1004 1008 1007
f 1007 1011 1009
f 1010 1026 1011
f 1009 1011 1012
f 1011 1026 1014
f 1013 1012 1015
f 1012 1014 1017
f 1015 1019 1018
f 1017 1027 1019
f 1019 1027 1021
f 1019 1022 1020
f 1021 1025 1024
f 1022 1024 1023
f 1025 1006 1008
f 1024 1008 1004
f 1028 1029 1030
f 1031 1029 1032
f 1028 1033 1034
f 1029 1035 1032
f 1034 1033 1036
f 1034 1037 1029
f 1037 1038 1035
f 1036 1033 1039
f 1036 1040 1037
f 1040 1041 1038
f 1039 1033 1042
f 1039 1043 1040
f 1043 1044 1041
f 1042 1033 1045
f 1042 1046 1043
f 1046 1047 1044
f 1045 1033 1048
f 1045 1049 1046
f 1048 1033 1050
f 1048 1051 1049
f 1047 1051 1052
f 1050 1030 1051
f 1052 1030 1031
f 1050 1033 1028
f 1028 1034 1029
f 1031 1030 1029
f 1029 1037 1035
f 1034 1036 1037
f 1037 1040 1038
f 1036 1039 1040
f 1040 1043 1041
f 1039 1042 1043
f 1043 1046 1044
f 1042 1045 1046
f 1046 1049 1047
f 1045 1048 1049
f 1048 1050 1051
f 1047 1049 1051
f 1050 1028 1030
f 1052 1051 1030
f 1053 1054 1055
f 1056 1057 1058
f 1054 1057 1055
f 1057 1059 1055
f 1053 1055 1059
f 1060 1061 1057
f 1059 1062 1063
f 1053 1059 1063
f 1061 1064 1062
f 1063 1065 1066
f 1053 1063 1066
f 1064 1065 1062
f 1065 1067 1066
f 1053 1066 1067
f 1065 1068 1069
f 1053 1067 1070
f 1068 1071 1069
f 1067 1071 1070
f 1053 1070 1072
f 1073 1074 1071
f 1071 1072 1070
f 1053 1072 1054
f 1075 1058 1074
f 1074 1054 1072
f 1056 1060 1057
f 1054 1058 1057
f 1057 1061 1059
f 1060 1076 1061
f 1059 1061 1062
f 1061 1076 1064
f 1063 1062 1065
f 1064 1077 1065
f 1065 1069 1067
f 1065 1077 1068
f 1068 1073 1071
f 1067 1069 1071
f 1073 1075 1074
f 1071 1074 1072
f 1075 1056 1058
f 1074 1058 1054
f 1078 1079 1080
f 1080 1081 1082
f 1078 1083 1084
f 1081 1085 1086
f 1084 1083 1087
f 1084 1085 1079
f 1085 1088 1086
f 1087 1083 1089
f 1087 1090 1085
f 1088 1091 1092
f 1089 1083 1093
f 1089 1091 1090
f 1091 1094 1092
f 1093 1083 1095
f 1093 1096 1091
f 1094 1097 1098
f 1095 1083 1099
f 1095 1097 1096
f 1099 1083 1100
f 1099 1101 1097
f 1097 1102 1098
f 1101 1078 1080
f 1102 1080 1082
f 1100 1083 1078
f 1078 1084 1079
f 1080 1079 1081
f 1081 1079 1085
f 1084 1087 1085
f 1085 1090 1088
f 1087 1089 1090
f 1088 1090 1091
f 1089 1093 1091
f 1091 1096 1094
f 1093 1095 1096
f 1094 1096 1097
f 1095 1099 1097
f 1099 1100 1101
f 1097 1101 1102
f 1101 1100 1078
f 1102 1101 1080

